Star Trek 2009 BluRay ac3 x264-LoNeWoLf.mkv

Encoded by Tequila-Bob a.k.a. bobnjeff a.k.a.LoNeWoLf

Source - NTSC BluRay Disc.

Movie has been tested and is DXVA Compliant
 
http://www.imdb.com/title/tt0796366/

Genres:Action , Adventure , Sci-Fi 

Rated PG-13 for sci-fi action and violence, and brief sexual content

Star Trek (2009) 
  127 min  -  Action | Adventure | Sci-Fi   -  8 May 2009 (USA) 
 8.1/10 X  Users: 8.1/10 (142,139 votes) 1,320 reviews | Critics: 434 reviews 
 A chronicle of the early days of James T. Kirk and his fellow USS Enterprise crew members. 


 Director: J.J. Abrams
 Writers: Roberto Orci, Alex Kurtzman, and 1 more credit » 
 Stars:Chris Pine, Zachary Quinto and Simon Pegg

Storyline
On the day of James Kirk's birth, his father dies on his ship in a last stand against a mysterious alien vessel. He was looking for Ambassador Spock, who is a child on Vulcan at that time, disdained by his neighbors for his half-human nature. Twenty years later, Kirk has grown into a young troublemaker inspired by Capt. Christopher Pike to fulfill his potential in Starfleet even as he annoys his instructors like young Lt. Spock. Suddenly, there is an emergency at Vulcan and the newly commissioned USS Enterprise is crewed with promising cadets like Nyota Uhura, Hikaru Sulu, Pavel Chekov and even Kirk himself thanks to Leonard McCoy's medical trickery. Together, this crew will have an adventure in the final frontier where the old legend is altered forever even as the new version of it is just beginning. 



[img]http://torrent-stats.info/07d2/88400f6.png[/img]

See the full size 1920x800 PNG files at the link below
 
http://s1015.photobucket.com/albums/af279/tequila-bob/StarTrek2009/



Format : Matroska 
File size : 7.99 GiB 
Duration : 2h 6mn 
Overall bit rate : 9 016 Kbps 
Encoded date : UTC 2010-12-21 11:15:07 
Writing application : mkvmerge v4.4.0 ('Die Wiederkehr') built on Oct 31 2010 21:52:48 
Writing library : libebml v1.0.0 + libmatroska v1.0.0 

Video 
ID : 1 
Format : AVC 
Format/Info : Advanced Video Codec 
Format profile : High@L4.1 
Format settings, CABAC : Yes 
Format settings, ReFrames : 4 frames 
Muxing mode : Container profile=Unknown@4.1 
Codec ID : V_MPEG4/ISO/AVC 
Duration : 2h 6mn 
Bit rate : 8 334 Kbps 
Width : 1 920 pixels 
Height : 800 pixels 
Display aspect ratio : 2.40:1 
Frame rate : 23.976 fps 
Color space : YUV 
Chroma subsampling : 4:2:0 
Bit depth : 8 bits 
Scan type : Progressive 
Bits/(Pixel*Frame) : 0.226 
Stream size : 7.26 GiB (91%) 
Writing library : x264 core 98 r1649 c54c47d 
Encoding settings : cabac=1 / ref=5 / deblock=1:-3:-1 / analyse=0x3:0x113 / me=umh / subme=9 / psy=1 / psy_rd=1.00:0.15 / mixed_ref=1 / me_range=32 / chroma_me=1 / trellis=2 / 8x8dct=1 / cqm=0 / deadzone=21,11 / fast_pskip=0 / chroma_qp_offset=-3 / threads=6 / sliced_threads=0 / nr=0 / decimate=1 / interlaced=0 / constrained_intra=0 / bframes=3 / b_pyramid=1 / b_adapt=2 / b_bias=0 / direct=1 / weightb=1 / weightp=2 / keyint=250 / keyint_min=25 / scenecut=40 / intra_refresh=0 / rc_lookahead=60 / rc=2pass / mbtree=1 / bitrate=8334 / ratetol=1.0 / qcomp=0.60 / qpmin=10 / qpmax=51 / qpstep=4 / cplxblur=20.0 / qblur=0.5 / vbv_maxrate=50000 / vbv_bufsize=50000 / ip_ratio=1.40 / aq=1:1.50 / nal_hrd=none 
Language : English 

Audio 
ID : 2 
Format : AC-3 
Format/Info : Audio Coding 3 
Mode extension : CM (complete main) 
Codec ID : A_AC3 
Duration : 2h 6mn 
Bit rate mode : Constant 
Bit rate : 640 Kbps 
Channel(s) : 6 channels 
Channel positions : Front: L C R, Side: L R, LFE 
Sampling rate : 48.0 KHz 
Bit depth : 16 bits 
Stream size : 581 MiB (7%) 
Title : 3/2+1 
Language : English 

Text #1 
ID : 3 
Format : PGS 
Codec ID : S_HDMV/PGS 
Codec ID/Info : The same subtitle format used on BDs/HD-DVDs 
Language : English 
Text #2 
Language : English 
Text #3 
Language : French 
Text #4 
Language : Spanish 
Text #5 
Language : Portuguese 
Text #6 
Language : French 
Text #7 
Language : French 
Text #8 
Language : Spanish 
Text #9 
Language : Spanish 

Menu & 14 Chapters





See the full size 1920x800 PNG files at the link below
 
http://s1015.photobucket.com/albums/af279/tequila-bob/StarTrek2009/


